Coordinates
version=1
nRows=10
nColumns=40
inDegrees=yes

Units are S.I. units (second, meters, Newtons, ...)
Angles are in degrees.

endheader
time	pelvis_tilt	pelvis_list	pelvis_rotation	pelvis_tx	pelvis_ty	pelvis_tz	hip_flexion_r	hip_adduction_r	hip_rotation_r	knee_angle_r	knee_angle_r_beta	ankle_angle_r	subtalar_angle_r	mtp_angle_r	hip_flexion_l	hip_adduction_l	hip_rotation_l	knee_angle_l	knee_angle_l_beta	ankle_angle_l	subtalar_angle_l	mtp_angle_l	lumbar_extension	lumbar_bending	lumbar_rotation	arm_flex_r	arm_add_r	arm_rot_r	elbow_flex_r	pro_sup_r	wrist_flex_r	wrist_dev_r	arm_flex_l	arm_add_l	arm_rot_l	elbow_flex_l	pro_sup_l	wrist_flex_l	wrist_dev_l
     56.46500000	     -4.72113891	     -3.18234586	     -7.82550296	      0.97695621	      0.92354752	      0.48448511	     21.56949025	      2.08328670	     -6.07821711	     22.27766619	     22.27766619	      8.09398128	      2.27220246	     -5.10683184	      0.85447226	     -6.62302086	    -11.99763700	     23.78371654	     23.78371654	     19.77375161	     -9.14587705	      0.84946920	     -8.94178723	      8.21088038	      0.73534313	    -12.34697259	    -13.27362151	    -18.13975759	     29.39702196	     46.62133881	      0.00000000	      0.00000000	     34.07252496	    -20.27577371	    -12.52197308	     74.54160095	     47.97628667	      0.00000000	      0.00000000
     56.48514286	     -4.72239587	     -3.19156405	     -7.20399389	      0.97780927	      0.92455926	      0.48845092	     20.82531539	      2.12707227	     -6.81856937	     21.93119076	     21.93119076	      8.63535897	      2.72518716	     -4.97595276	      2.25726261	     -7.38230265	    -11.35929776	     27.08149937	     27.08149937	     18.68988069	     -9.90947136	     -0.26557609	     -8.76755502	      8.26155815	      0.69976675	    -11.59556098	    -13.57543887	    -18.04461105	     29.39198651	     46.61910988	      0.00000000	      0.00000000	     32.87646479	    -19.42111834	    -12.59679170	     73.95385720	     47.96215945	      0.00000000	      0.00000000
     56.50528571	     -4.53725360	     -3.22195652	     -6.61692298	      0.97848993	      0.92575909	      0.49226733	     19.85452527	      2.20211887	     -7.47041645	     21.51141163	     21.51141163	      9.15061468	      3.14076951	     -4.93439345	      3.68989401	     -8.10448113	    -10.56796614	     30.71257271	     30.71257271	     17.40363595	    -11.00423349	     -1.11363795	     -8.89429013	      8.30638509	      0.83956233	    -10.66775272	    -13.87766825	    -17.94453887	     29.41389184	     46.61799243	      0.00000000	      0.00000000	     31.66053801	    -18.56174104	    -12.50996662	     73.34905647	     47.93626574	      0.00000000	      0.00000000
     56.52542857	     -4.41798435	     -3.33248731	     -6.00144366	      0.97886655	      0.92678252	      0.49588508	     18.93626346	      2.37400572	     -8.21011591	     21.02286491	     21.02286491	      9.51962062	      3.56873131	     -4.88544188	      5.51292005	     -8.87756663	     -9.54671672	     34.75272971	     34.75272971	     15.87697409	    -12.40811944	     -1.81995685	     -8.92113147	      8.42215169	      0.97026523	     -9.59775949	    -14.21055829	    -17.82417787	     29.37688333	     46.61953991	      0.00000000	      0.00000000	     30.26954547	    -17.64404259	    -12.33123760	     72.57572184	     47.89971986	      0.00000000	      0.00000000
     56.54557143	     -4.34484058	     -3.31821638	     -5.35891140	      0.97898138	      0.92766898	      0.49912210	     18.12757503	      2.38119063	     -9.03888209	     20.59605287	     20.59605287	      9.99561870	      4.17280651	     -4.58407861	      7.47523114	     -9.31695832	     -8.21251069	     38.61349220	     38.61349220	     13.47682868	    -14.65414443	     -3.49274845	     -8.78759546	      8.38750219	      0.64267227	     -7.31385565	    -14.67834572	    -16.81837489	     26.91254864	     46.66217736	      0.00000000	      0.00000000	     28.57552201	    -16.83695870	    -12.64105422	     71.06984792	     47.87442384	      0.00000000	      0.00000000
     56.56571429	     -4.06617993	     -3.49035466	     -4.75073466	      0.97890999	      0.92855687	      0.50240191	     17.11098141	      2.67101529	     -9.54787167	     20.16139606	     20.16139606	     10.29138506	      4.18674967	     -4.58048215	      9.39785786	     -9.99654512	     -7.11257605	     42.71664457	     42.71664457	     11.97980371	    -15.98088801	     -3.30124643	     -9.07890459	      8.50814922	      0.91471917	     -6.01085196	    -14.97688112	    -16.76668730	     27.22307951	     46.65694548	      0.00000000	      0.00000000	     26.92644540	    -15.84612759	    -12.19004446	     70.21359183	     47.81534869	      0.00000000	      0.00000000
     56.58585714	     -3.93256404	     -3.60412057	     -4.09366186	      0.97861494	      0.92906802	      0.50534954	     16.26828476	      2.93127308	     -9.97349052	     19.69099383	     19.69099383	     10.55825104	      3.98435559	     -4.58281799	     11.61116487	    -10.45054829	     -5.78475099	     46.69877118	     46.69877118	     10.70178200	    -17.32125072	     -2.36687118	     -9.08217039	      8.61612348	      0.93564401	     -4.55168653	    -15.24797885	    -16.66916904	     27.33260248	     46.65836560	      0.00000000	      0.00000000	     25.05686357	    -15.05732019	    -11.65212034	     68.75712478	     47.73877828	      0.00000000	      0.00000000
     56.60600000	     -3.74857523	     -3.63345758	     -3.43047799	      0.97792812	      0.92952669	      0.50818659	     15.55567565	      3.14909549	    -10.07797300	     19.45578029	     19.45578029	     10.62836190	      3.16181838	     -4.92198196	     14.05529606	    -10.59538116	     -4.27344832	     50.90827909	     50.90827909	     12.33737289	    -17.58019958	      5.84187323	     -9.11905080	      8.48268857	      0.87196323	     -1.81759638	    -15.50561380	    -16.01264930	     24.92843857	     46.73967199	      0.00000000	      0.00000000	     23.67588180	    -14.47200190	    -10.42131836	     65.31297806	     47.58365653	      0.00000000	      0.00000000
     56.62614286	     -3.48330840	     -3.74345105	     -2.76525512	      0.97715979	      0.92971372	      0.51096256	     14.85965583	      3.46959533	    -10.07451147	     19.40473908	     19.40473908	     10.86697426	      2.12618083	     -4.95190513	     16.21708271	    -10.85719063	     -3.06582858	     54.28207340	     54.28207340	     12.62391183	    -18.20482229	      9.84351336	     -9.32083338	      8.43211694	      0.83011938	      0.29749243	    -15.61919110	    -15.94307491	     24.63484978	     46.77096591	      0.00000000	      0.00000000	     21.92241932	    -13.78358384	     -9.60445688	     62.77266714	     47.47552485	      0.00000000	      0.00000000
     56.64628571	     -3.16271793	     -3.84081443	     -2.08254363	      0.97624037	      0.92964497	      0.51366048	     14.27169938	      3.79788348	     -9.88297886	     19.62765636	     19.62765636	     11.20757515	      0.72665361	     -4.86349719	     18.19444491	    -11.12140432	     -2.08949177	     56.95506028	     56.95506028	     12.54492424	    -18.76271819	     11.94984814	     -9.58663108	      8.33169366	      0.52338470	      2.54823517	    -15.62428767	    -15.87718255	     25.02486438	     46.77115417	      0.00000000	      0.00000000	     20.04296231	    -13.26345334	     -8.80170752	     59.85692945	     47.36103320	      0.00000000	      0.00000000
